 <svg 
 xmlns="http://www.w3.org/2000/svg"
 xmlns:xlink="http://www.w3.org/1999/xlink"
 width="27.028in" height="1.556in">
<path fill-rule="evenodd"  fill="rgb(68, 37, 16)"
 d="M1860.064,47.859 C1850.233,52.532 1839.199,53.934 1824.448,49.262 L1694.311,5.779 C1683.236,2.036 1672.210,-2.636 1661.134,2.509 L1562.930,46.934 C1553.099,51.606 1539.584,53.934 1527.314,48.333 L1397.136,4.853 C1384.865,1.107 1371.359,-2.636 1360.325,2.509 L1262.079,46.934 C1252.248,51.606 1238.742,53.934 1226.463,48.333 L1096.326,4.853 C1085.259,1.107 1071.744,-2.636 1059.474,2.509 L951.594,50.858 C943.883,52.762 935.206,52.625 924.581,49.262 L794.436,5.779 C783.369,2.036 772.335,-2.636 761.259,2.509 L663.055,46.934 C653.224,51.606 639.718,53.934 627.447,48.333 L497.261,4.853 C484.991,1.107 471.484,-2.636 460.450,2.509 L362.205,46.934 C352.374,51.606 338.867,53.934 326.597,48.333 L196.451,4.853 C185.384,1.107 171.870,-2.636 159.599,2.509 L0.002,74.038 L0.002,101.157 L83.505,63.294 C94.531,58.148 110.477,62.350 120.316,65.622 L250.494,109.102 C264.000,113.790 275.035,111.917 284.866,107.703 L384.314,63.294 C394.145,58.622 411.327,62.350 419.922,65.622 L550.067,109.102 C564.810,113.790 575.844,112.375 585.675,107.703 L683.921,63.294 C694.955,58.148 710.942,62.350 720.732,65.622 L850.918,109.102 C864.424,113.790 875.459,111.917 885.290,107.703 L989.011,61.879 C999.399,59.794 1011.874,62.867 1020.183,65.622 L1150.369,109.102 C1163.875,113.790 1174.910,111.917 1184.740,107.703 L1284.181,63.294 C1294.012,58.622 1311.202,62.350 1319.797,65.622 L1449.934,109.102 C1464.685,113.790 1475.719,112.375 1485.550,107.703 L1583.795,63.294 C1594.821,58.148 1610.817,62.350 1620.607,65.622 L1750.784,109.102 C1764.299,113.790 1775.325,111.917 1785.156,107.703 L1945.998,36.645 L1945.998,9.996 L1860.064,47.859 Z"/>
</svg>